<svg fill="none" height="24" viewBox="0 0 130 24" width="130" xmlns="http://www.w3.org/2000/svg"><g fill="#000"><path d="m129.444 7.00598-5.652 7.65262 6.208 8.3672h-3.367l-4.509-6.1042-4.479 6.1042h-3.212l6.116-8.2481-5.745-7.77172h3.366l4.046 5.50862 4.078-5.50862z"/><path d="m102.943 15.1367c0 4.2832 2.229 5.9488 4.892 5.9488s4.892-1.8441 4.892-5.9488c0-4.2831-2.229-5.94876-4.892-5.94876s-4.892 1.57646-4.892 5.94876zm-3.0035 0c0-5.80004 3.9015-8.32827 7.8955-8.32827s7.896 2.52823 7.896 8.32827c0 5.8001-3.902 8.3283-7.896 8.3283s-7.8955-2.5282-7.8955-8.3283z"/><path d="m86.6367 15.1052c0 4.2396 2.3629 6.031 4.8812 6.031 3.0158 0 4.6947-2.1198 4.6947-6.031s-1.6789-6.03105-4.6947-6.03105c-2.5183 0-4.8812 1.79145-4.8812 6.03105zm-2.7049-14.570044h2.8293v9.016704c1.026-1.70183 2.767-2.80652 5.4719-2.80652 3.9485 0 7.0575 3.10508 7.0575 8.35986 0 5.3443-3.109 8.3598-7.0575 8.3598-2.7049 0-4.4459-1.1046-5.4719-2.8065v2.4184h-2.8293z"/><path d="m79.3721 9.55186v-9.016704h2.8292v22.541744h-2.8292v-2.4184c-1.026 1.7018-2.7671 2.8065-5.472 2.8065-3.9485 0-7.0575-3.0155-7.0575-8.3598 0-5.25478 3.109-8.35987 7.0575-8.35987 2.7049 0 4.446 1.1047 5.472 2.80653zm.1243 5.55334c0-4.2397-2.3629-6.03105-4.8812-6.03105-3.0158 0-4.6946 2.11985-4.6946 6.03105s1.6788 6.031 4.6946 6.031c2.5183 0 4.8812-1.7914 4.8812-6.031z"/><path d="m54.8941 7.02475v2.45307c.9407-1.51265 2.5185-2.66939 5.2798-2.66939 3.9446 0 5.3708 2.49143 5.3708 6.13957v10.0844h-2.7613v-9.2836c0-2.4617-.4248-4.59724-3.5805-4.59724-2.6702 0-4.3088 1.74994-4.3088 5.22014v8.6607h-2.7612l-.0714-16.00765z"/><path d="m47.839 23.0324v-2.2527c-.9469 1.5217-2.4436 2.6853-5.1621 2.6853-3.7876 0-5.2538-2.5063-5.2538-6.1763v-10.26395h2.7796v9.45835c0 2.4765.3971 4.6248 3.4516 4.6248 2.6575 0 4.1847-1.7604 4.1847-5.2513v-8.83185h2.7796v16.00765z"/><path d="m29.7336 7.00125v-1.60907c0-2.94997 1.0251-4.857024 4.2812-4.857024.6331 0 1.5376.0298 2.1104.148989v2.234825c-.6934-.08939-1.2663-.11919-1.7185-.11919-1.5376 0-1.9295.71514-1.9295 2.5924v1.60907h3.648v2.17523h-3.648v13.85592h-2.7436v-13.85592h-2.2612v-2.17523z"/><path d="m0 6.96289h6.42779v16.0695h-6.42779z"/><path d="m0 0h6.42778v16.0695h-6.42778z" transform="matrix(-.00000004 1 1 .00000004 6.42798 .535156)"/></g><path d="m11.1023 11.6377h6.42779v6.42779h-6.42779z" fill="#2f7bf5"/></svg>