<svg xmlns="http://www.w3.org/2000/svg" viewBox="0 0 670.11 134.9"><path fill="#0074ff" stroke-width="0" d="M101.68 86.97c0 29.05-21.97 47.93-51.02 47.93S0 116.2 0 87.33 21.97 39.4 51.02 39.4s50.66 18.7 50.66 47.57Zm-51.02 23.6c13.62 0 23.24-9.99 23.24-23.6s-9.26-23.24-22.88-23.24-23.24 9.99-23.24 23.6 9.26 23.24 22.88 23.24Zm91.87 21.97h-27.05V41.76h27.05v10.35a37.32 37.32 0 0 1 28.32-12.71c21.06 0 32.86 14.16 32.86 38.31v54.83h-27.05V82.06c0-11.62-6.54-18.7-17.07-18.7s-17.07 7.08-17.07 18.52v50.66Z"/><path fill="#000082" stroke-width="0" d="M289.96 121.83c-6.54 8.17-16.16 13.07-28.69 13.07-26.87 0-43.58-20.88-43.58-47.75s17.43-47.75 44.3-47.75c12.35 0 21.61 4.54 27.96 12.35V0H317v132.54h-27.05v-10.71Zm-22.15-10.89c13.8 0 23.24-10.35 23.24-24.15s-9.08-23.42-22.51-23.42-23.06 9.99-23.06 23.78 8.9 23.78 22.33 23.78Zm63.01-23.79c0-28.69 21.06-47.75 49.38-47.75s47.21 19.25 47.21 45.75c0 3.09-.18 6.35-.36 9.26h-68.27c2.91 10.35 11.44 17.43 23.42 17.43 8.72 0 15.61-3.27 21.79-10.35l16.7 16.34c-10.71 11.8-23.97 17.07-39.76 17.07-28.69 0-50.11-19.06-50.11-47.75Zm28.32-10.35h40.13c-2.18-8.9-9.99-14.89-19.79-14.89-10.53 0-17.61 6.17-20.34 14.89Zm129.1 33.59c8.53 0 15.61-4.54 20.88-11.44l18.34 16.34c-9.8 12.35-23.24 19.61-39.58 19.61-28.69 0-50.11-19.06-50.11-47.75S459.2 39.4 487.88 39.4c16.16 0 29.96 6.72 39.58 19.25l-18.34 16.7c-5.08-6.9-12.35-11.44-20.88-11.44-13.44 0-22.7 9.8-22.7 23.24s9.26 23.24 22.7 23.24Zm88.24-16.88-11.08 7.44v31.59h-27.05V0h27.05v72.81l57.37-38.85h1.09v29.96L599.89 79.9l30.32 51.56v1.09h-30.87l-22.88-39.04Zm78.66-60.45-3.72-6.76h-1.05v6.76h-4.36v-17.9h7.32c1.41 0 2.61.25 3.61.74a5.08 5.08 0 0 1 2.23 2.03 5.68 5.68 0 0 1-.27 6.06 5.43 5.43 0 0 1-2.97 1.99l4.13 7.09h-4.92Zm-4.77-9.84h2.7c.8 0 1.4-.19 1.8-.59.4-.39.6-.94.6-1.66s-.2-1.21-.6-1.61c-.4-.39-1-.59-1.8-.59h-2.7v4.44Z"/><path fill="#000082" stroke-width="0" d="M652.45 41.76c-9.73 0-17.65-7.92-17.65-17.65s7.92-17.65 17.65-17.65 17.65 7.92 17.65 17.65-7.92 17.65-17.65 17.65Zm0-32.31c-8.08 0-14.66 6.58-14.66 14.66s6.57 14.66 14.66 14.66a14.67 14.67 0 0 0 0-29.32Z"/></svg>